<?xml version="1.0" ?>
<!DOCTYPE svg  PUBLIC '-//W3C//DTD SVG 1.1//EN'  'http://www.w3.org/Graphics/SVG/1.1/DTD/svg11.dtd'>
<!-- Uploaded to: SVG Repo, www.svgrepo.com, Generator: SVG Repo Mixer Tools -->
<svg fill="#000000" width="800px" height="800px" viewBox="0 0 32 32" style="fill-rule:evenodd;clip-rule:evenodd;stroke-linejoin:round;stroke-miterlimit:2;" version="1.1" xml:space="preserve" xmlns="http://www.w3.org/2000/svg" xmlns:serif="http://www.serif.com/" xmlns:xlink="http://www.w3.org/1999/xlink">
<g transform="matrix(1,0,0,1,-48,-48)">
<g transform="matrix(1,0,0,0.842105,48,9.68421)">
<path d="M29,57.375C29,56.063 28.105,55 27,55C22.157,55 9.843,55 5,55C3.895,55 3,56.063 3,57.375C3,61.025 3,67.975 3,71.625C3,72.937 3.895,74 5,74C9.843,74 22.157,74 27,74C28.105,74 29,72.937 29,71.625C29,67.975 29,61.025 29,57.375Z" style="fill:rgb(144,224,239);"/>
</g>
<path d="M78,58C78,56.343 76.657,55 75,55L53,55C51.343,55 50,56.343 50,58L50,70C50,71.657 51.343,73 53,73L75,73C76.657,73 78,71.657 78,70L78,58ZM76,58L76,70C76,70.552 75.552,71 75,71C75,71 53,71 53,71C52.448,71 52,70.552 52,70C52,70 52,58 52,58C52,57.448 52.448,57 53,57C53,57 75,57 75,57C75.552,57 76,57.448 76,58ZM72,69L73,69C73.552,69 74,68.552 74,68C74,67.448 73.552,67 73,67L72,67C71.448,67 71,67.448 71,68C71,68.552 71.448,69 72,69ZM64,59C61.24,59 59,61.24 59,64C59,66.76 61.24,69 64,69C66.76,69 69,66.76 69,64C69,61.24 66.76,59 64,59ZM64,61C65.656,61 67,62.344 67,64C67,65.656 65.656,67 64,67C62.344,67 61,65.656 61,64C61,62.344 62.344,61 64,61ZM55,61L56,61C56.552,61 57,60.552 57,60C57,59.448 56.552,59 56,59L55,59C54.448,59 54,59.448 54,60C54,60.552 54.448,61 55,61Z" style="fill:rgb(25,144,167);"/>
</g>
</svg>